# xmcd
#
# Track frame offsets:
#	150
#	13462
#	25120
#	40740
#	56230
#	72875
#	86245
#	106272
#	120127
#	137097
#	152430
#
# Disc length: 2247 seconds
#
# Revision: 2
# Processed by: cddbd v1.5.2PL0 Copyright (c) Steve Scherf et al.
# Submitted via: EZCDAudioConverter 6.0.2.1
#
DISCID=8a08c50b
DTITLE=Tammy Cochran - Life Happened
DYEAR=2001
DGENRE=Country
TTITLE0=Love Won't Let Me
TTITLE1=Wanted
TTITLE2=Go Slow
TTITLE3=What Kind Of Woman Would I Be
TTITLE4=White Lies And Picket Fences
TTITLE5=I'm Getting There
TTITLE6=Life Happened
TTITLE7=I Used To Be That Woman
TTITLE8=Dead Of The Night
TTITLE9=All In How You Look At Things
TTITLE10=If You Can
EXTD=
EXTT0=
EXTT1=
EXTT2=
EXTT3=
EXTT4=
EXTT5=
EXTT6=
EXTT7=
EXTT8=
EXTT9=
EXTT10=
PLAYORDER=
